<?xml version="1.0" encoding="UTF-8" standalone="no"?>
<svg
   xmlns:dc="http://purl.org/dc/elements/1.1/"
   xmlns:cc="http://creativecommons.org/ns#"
   xmlns:rdf="http://www.w3.org/1999/02/22-rdf-syntax-ns#"
   xmlns:svg="http://www.w3.org/2000/svg"
   xmlns="http://www.w3.org/2000/svg"
   id="svg14477"
   viewBox="0 0 10.583 10.583"
   version="1.1"
   height="40"
   width="40">
  <metadata
     id="metadata14483">
    <rdf:RDF>
      <cc:Work
         rdf:about="">
        <dc:format>image/svg+xml</dc:format>
        <dc:type
           rdf:resource="http://purl.org/dc/dcmitype/StillImage" />
        <dc:title></dc:title>
      </cc:Work>
    </rdf:RDF>
  </metadata>
  <defs
     id="defs14481" />
  <rect
     x="0.52885002"
     y="6.6245413"
     width="1.5874799"
     height="0.26458001"
     id="rect14443"
     style="fill:#4ecac2;stroke-width:0.26458001" />
  <rect
     transform="matrix(0.88507955,-0.46543978,0.44532061,0.89537118,0,0)"
     x="-0.095528148"
     y="7.3296657"
     width="4.6283002"
     height="0.28444958"
     id="rect14445"
     style="fill:#4ecac2;stroke-width:0.26457989" />
  <circle
     style="fill:none;stroke:#4ecac2;stroke-width:0.26458001;stroke-linejoin:round"
     id="circle14449"
     r="0.52916002"
     cy="6.7568312"
     cx="2.7460318" />
  <rect
     style="fill:#4ecac2;stroke-width:0.26458001"
     id="rect14451"
     height="0.26458001"
     width="1.5874799"
     y="4.5052567"
     x="-10.037856"
     transform="scale(-1,1)" />
  <circle
     style="fill:none;stroke:#4ecac2;stroke-width:0.26458001;stroke-linejoin:round"
     id="circle14453"
     r="0.52916002"
     cy="4.637547"
     cx="-7.8206739"
     transform="scale(-1,1)" />
  <rect
     style="fill:#4ecac2;stroke-width:0.26458001"
     id="rect14455"
     height="0.26458001"
     width="1.5874799"
     y="8.7411814"
     x="-10.037856"
     transform="scale(-1,1)" />
  <circle
     style="fill:none;stroke:#4ecac2;stroke-width:0.26458001;stroke-linejoin:round"
     id="circle14457"
     r="0.52916002"
     cy="8.8734713"
     cx="-7.8206739"
     transform="scale(-1,1)" />
  <rect
     ry="0.26458001"
     rx="0.13028447"
     height="1.5678481"
     width="0.26056632"
     y="2.1831083"
     x="-1.1481892"
     transform="scale(-1,1)"
     id="rect1765-6-6"
     style="fill:#4ecac2;stroke-width:0.26458001" />
  <rect
     ry="0.26458001"
     rx="0.13028447"
     height="1.5678481"
     width="0.26056632"
     y="2.1831083"
     x="-3.2648287"
     transform="scale(-1,1)"
     id="rect1765-6-5-9"
     style="fill:#4ecac2;stroke-width:0.26458001" />
  <rect
     ry="0.26458001"
     rx="0.13028447"
     height="3.1389773"
     width="0.26056632"
     y="1.3893682"
     x="-2.7356691"
     transform="scale(-1,1)"
     id="rect1765-9-8-0-3"
     style="fill:#4ecac2;stroke-width:0.26458001" />
  <rect
     ry="0.26458001"
     rx="0.13028447"
     height="4.741538"
     width="0.26056632"
     y="0.59827244"
     x="-2.2065091"
     transform="scale(-1,1)"
     id="rect1765-2-4-5-6"
     style="fill:#4ecac2;stroke-width:0.26458001" />
  <rect
     ry="0.26458001"
     rx="0.13028447"
     height="3.1389773"
     width="0.26056632"
     y="1.3893682"
     x="-1.6773492"
     transform="scale(-1,1)"
     id="rect1765-1-8-7-0"
     style="fill:#4ecac2;stroke-width:0.26458001" />
  <rect
     ry="0.26458001"
     rx="0.13028447"
     height="3.1389773"
     width="0.26056632"
     y="1.3893682"
     x="-4.8523092"
     transform="scale(-1,1)"
     id="rect1765-9-8-2-6"
     style="fill:#4ecac2;stroke-width:0.26458001" />
  <rect
     ry="0.26458001"
     rx="0.13028447"
     height="4.7650857"
     width="0.26056632"
     y="0.57710969"
     x="-4.3231487"
     transform="scale(-1,1)"
     id="rect1765-2-4-7-2"
     style="fill:#4ecac2;stroke-width:0.26458001" />
  <rect
     ry="0.26458001"
     rx="0.13028447"
     height="3.1389773"
     width="0.26056632"
     y="1.3893682"
     x="-3.7939892"
     transform="scale(-1,1)"
     id="rect1765-1-8-2-6"
     style="fill:#4ecac2;stroke-width:0.26458001" />
</svg>
