<svg id="svg6882" width="40" height="40" version="1.1" viewBox="0 0 10.583 10.583" xmlns="http://www.w3.org/2000/svg">
 <g id="layer1" transform="translate(0 -286.42)">
  <g id="g6732" transform="matrix(.26458 0 0 .26458 -5.2683 241.28)">
   <rect id="rect827-7-8-4-3" x="19.912" y="170.58" width="40" height="40" fill="#141414"/>
   <g fill="#4ecac2">
    <rect id="rect1765-6-6" transform="scale(-1,1)" x="-42.827" y="187.89" width=".98483" height="5.9258" rx=".49242" ry="1"/>
    <rect id="rect1765-9-8-7" transform="scale(-1,1)" x="-40.827" y="184.89" width=".98483" height="11.864" rx=".49242" ry="1"/>
    <rect id="rect1765-2-4-53" transform="scale(-1,1)" x="-38.827" y="181.9" width=".98483" height="17.921" rx=".49242" ry="1"/>
    <rect id="rect1765-1-8-5" transform="scale(-1,1)" x="-36.827" y="184.89" width=".98483" height="11.864" rx=".49242" ry="1"/>
    <rect id="rect1765-7-8-6" transform="scale(-1,1)" x="-34.827" y="187.79" width=".98483" height="6.133" rx=".49242" ry="1"/>
    <rect id="rect1765-79-3-2" transform="scale(-1,1)" x="-32.827" y="184.89" width=".98483" height="11.864" rx=".49242" ry="1"/>
    <rect id="rect1765-76-8-9" transform="scale(-1,1)" x="-30.827" y="181.85" width=".98483" height="18.01" rx=".49242" ry="1"/>
    <rect id="rect1765-27-7-1" transform="scale(-1,1)" x="-28.827" y="184.89" width=".98483" height="11.864" rx=".49242" ry="1"/>
    <rect id="rect1765-15-5-2" transform="scale(-1,1)" x="-26.827" y="187.86" width=".98483" height="5.9949" rx=".49242" ry="1"/>
    <rect id="rect1765-8-2-7" transform="scale(-1,1)" x="-24.827" y="184.89" width=".98483" height="11.864" rx=".49242" ry="1"/>
    <rect id="rect1765-15-8-4-0" transform="scale(-1,1)" x="-22.827" y="187.86" width=".98483" height="5.9949" rx=".49242" ry="1"/>
    <rect id="rect1765-6-5-9" transform="scale(-1,1)" x="-50.827" y="187.89" width=".98483" height="5.9258" rx=".49242" ry="1"/>
    <rect id="rect1765-9-8-0-3" transform="scale(-1,1)" x="-48.827" y="184.89" width=".98483" height="11.864" rx=".49242" ry="1"/>
    <rect id="rect1765-2-4-5-6" transform="scale(-1,1)" x="-46.827" y="181.9" width=".98483" height="17.921" rx=".49242" ry="1"/>
    <rect id="rect1765-1-8-7-0" transform="scale(-1,1)" x="-44.827" y="184.89" width=".98483" height="11.864" rx=".49242" ry="1"/>
    <rect id="rect1765-9-8-2-6" transform="scale(-1,1)" x="-56.827" y="184.89" width=".98483" height="11.864" rx=".49242" ry="1"/>
    <rect id="rect1765-2-4-7-2" transform="scale(-1,1)" x="-54.827" y="181.82" width=".98483" height="18.01" rx=".49242" ry="1"/>
    <rect id="rect1765-1-8-2-6" transform="scale(-1,1)" x="-52.827" y="184.89" width=".98483" height="11.864" rx=".49242" ry="1"/>
   </g>
  </g>
 </g>
</svg>
