<svg width="40" height="40" version="1.1" viewBox="0 0 10.583 10.583" xmlns="http://www.w3.org/2000/svg">
 <g transform="translate(0 -286.42)">
  <g transform="matrix(.26458 0 0 .26458 -3.4396 42.466)">
   <path d="m13 922.02h40v40h-40z" fill="#141414"/>
   <path d="m15.221 942.17h35.886v10.076h-35.886z" fill="#141414"/>
   <g transform="translate(1.5 58.5)" fill="none" stroke="#4ecac2">
    <path d="m14.388 883.53c1.4015-6.8688 2.8028-13.737 4.1151-13.737 1.3123 8e-5 2.5359 6.8679 3.845 13.82 1.3091 6.9523 2.7034 13.988 4.1016 14.001 1.3982 0.0134 2.7994-6.9955 4.2005-14.004"/>
    <path d="m30.86 883.53c1.3807-6.9564 2.7612-13.912 4.054-13.912s2.4982 6.9554 3.7879 13.996 2.6633 14.166 4.0407 14.18c1.3774 0.0136 2.7578-7.0846 4.1382-14.182"/>
   </g>
   <g>
    <path d="m24.043 927.99c-0.61895-7e-5 -1.045 0.65791-1.4219 1.4638-0.37688 0.80587-0.72753 1.8788-1.082 3.1521-0.70901 2.5466-1.4166 5.885-2.123 9.2147l0.95508 0.42918c0.70649-3.3296 1.4124-6.6508 2.0938-9.0981 0.34069-1.2237 0.68011-2.2286 0.98438-2.8792 0.30426-0.65058 0.55119-0.82712 0.59375-0.82712 0.04257 3e-5 0.27027 0.16473 0.55664 0.8129 0.28637 0.64819 0.60105 1.6563 0.91406 2.8849 0.62603 2.4572 1.2633 5.7987 1.9238 9.172 0.66053 3.3734 1.3437 6.7769 2.0508 9.3795 0.35355 1.3013 0.70934 2.402 1.0977 3.2288 0.38831 0.82681 0.8359 1.4893 1.4648 1.495 0.62896 6e-3 1.0817-0.65351 1.4727-1.4752 0.39092-0.82163 0.75114-1.9154 1.1113-3.2146 0.72037-2.5985 1.4265-6.0079 2.1328-9.4051l-0.95703-0.42066c-0.70628 3.3972-1.412 6.7856-2.1035 9.28-0.34575 1.2472-0.69132 2.2721-1.0059 2.9332-0.31454 0.6611-0.56871 0.84769-0.64453 0.84701-0.07585-7e-4 -0.33159-0.1949-0.64453-0.86122-0.31294-0.66631-0.65509-1.6938-0.99414-2.9418-0.67809-2.4959-1.3583-5.8763-2.0176-9.2431-0.65925-3.3668-1.2978-6.723-1.9492-9.28-0.32573-1.2785-0.6515-2.3554-1.0098-3.1663-0.35827-0.81091-0.7795-1.4807-1.3984-1.4808z" color="#000000" color-rendering="auto" dominant-baseline="auto" fill="#0f82af" fill-rule="evenodd" image-rendering="auto" shape-rendering="auto" solid-color="#000000" style="font-feature-settings:normal;font-variant-alternates:normal;font-variant-caps:normal;font-variant-ligatures:normal;font-variant-numeric:normal;font-variant-position:normal;isolation:auto;mix-blend-mode:normal;shape-padding:0;text-decoration-color:#000000;text-decoration-line:none;text-decoration-style:solid;text-indent:0;text-orientation:mixed;text-transform:none;white-space:normal"/>
    <path d="m40.588 927.82c-0.62211-8e-5 -1.0394 0.66866-1.4102 1.4837-0.37077 0.81501-0.7154 1.9031-1.0645 3.1919-0.6981 2.5776-1.3958 5.9563-2.0918 9.3283l0.95898 0.42067c0.696-3.3721 1.3909-6.7376 2.0625-9.2175 0.33582-1.24 0.66849-2.259 0.96875-2.919 0.30026-0.66 0.5466-0.83279 0.57617-0.83278 0.01479 0 0.06101 6e-3 0.16211 0.13068 0.1011 0.12458 0.23756 0.35895 0.37891 0.68784 0.2827 0.65779 0.59184 1.6797 0.90039 2.9247 0.61711 2.49 1.2458 5.8752 1.8965 9.2914 0.6507 3.4162 1.3214 6.8618 2.0176 9.496 0.34809 1.3171 0.70001 2.4296 1.082 3.2658s0.81971 1.5118 1.4512 1.5178c0.63146 6e-3 1.0763-0.66404 1.4609-1.495 0.3846-0.83098 0.73911-1.9394 1.0938-3.2544 0.03145-0.11653 0.06235-0.25539 0.09375-0.37519v-4.4879c-0.34443 1.5936-0.68646 3.0748-1.0254 4.3316-0.34082 1.2638-0.68179 2.3024-0.99219 2.973-0.31039 0.67065-0.56018 0.85326-0.62305 0.85268-0.06287-5.9e-4 -0.31813-0.19092-0.62695-0.86691-0.30883-0.67596-0.64625-1.7197-0.98047-2.9844-0.66844-2.5293-1.3388-5.9526-1.9883-9.3624-0.64949-3.4098-1.2785-6.8085-1.9199-9.3966-0.32071-1.294-0.63982-2.3834-0.99219-3.2032-0.17618-0.40997-0.36016-0.75516-0.58008-1.0261-0.21992-0.27091-0.49755-0.47463-0.80859-0.47465z" color="#000000" color-rendering="auto" dominant-baseline="auto" fill="#0f82af" fill-rule="evenodd" image-rendering="auto" shape-rendering="auto" solid-color="#000000" style="font-feature-settings:normal;font-variant-alternates:normal;font-variant-caps:normal;font-variant-ligatures:normal;font-variant-numeric:normal;font-variant-position:normal;isolation:auto;mix-blend-mode:normal;shape-padding:0;text-decoration-color:#000000;text-decoration-line:none;text-decoration-style:solid;text-indent:0;text-orientation:mixed;text-transform:none;white-space:normal"/>
    <path d="m51.265 941.52v1h-36.265v-1z" fill="#fff"/>
    <path d="m15 926.02h1v32h-1z" fill="#fff"/>
   </g>
  </g>
 </g>
</svg>
