<?xml version="1.0" encoding="UTF-8" standalone="no"?>
<svg
   xmlns:dc="http://purl.org/dc/elements/1.1/"
   xmlns:cc="http://creativecommons.org/ns#"
   xmlns:rdf="http://www.w3.org/1999/02/22-rdf-syntax-ns#"
   xmlns:svg="http://www.w3.org/2000/svg"
   xmlns="http://www.w3.org/2000/svg"
   viewBox="0 0 10.583 10.583"
   version="1.1"
   height="40"
   width="40"
   id="svg6882">
  <metadata
     id="metadata2315">
    <rdf:RDF>
      <cc:Work
         rdf:about="">
        <dc:format>image/svg+xml</dc:format>
        <dc:type
           rdf:resource="http://purl.org/dc/dcmitype/StillImage" />
        <dc:title></dc:title>
      </cc:Work>
    </rdf:RDF>
  </metadata>
  <defs
     id="defs2313" />
  <g
     transform="matrix(0.26458,0,0,0.26458,-5.2683,-45.14)"
     style="fill:#4ecac2"
     id="g2306">
    <rect
       ry="1"
       rx="0.49241999"
       height="5.9257998"
       width="0.98483002"
       y="187.89"
       x="-42.827"
       transform="scale(-1,1)"
       id="rect1765-6-6" />
    <rect
       ry="1"
       rx="0.49241999"
       height="11.864"
       width="0.98483002"
       y="184.89"
       x="-40.827"
       transform="scale(-1,1)"
       id="rect1765-9-8-7" />
    <rect
       ry="1"
       rx="0.49241999"
       height="17.921"
       width="0.98483002"
       y="181.89999"
       x="-38.827"
       transform="scale(-1,1)"
       id="rect1765-2-4-53" />
    <rect
       ry="1"
       rx="0.49241999"
       height="11.864"
       width="0.98483002"
       y="184.89"
       x="-36.827"
       transform="scale(-1,1)"
       id="rect1765-1-8-5" />
    <rect
       ry="1"
       rx="0.49241999"
       height="6.1329999"
       width="0.98483002"
       y="187.78999"
       x="-34.827"
       transform="scale(-1,1)"
       id="rect1765-7-8-6" />
    <rect
       ry="1"
       rx="0.49241999"
       height="11.864"
       width="0.98483002"
       y="184.89"
       x="-32.827"
       transform="scale(-1,1)"
       id="rect1765-79-3-2" />
    <rect
       ry="1"
       rx="0.49241999"
       height="18.01"
       width="0.98483002"
       y="181.85001"
       x="-30.827"
       transform="scale(-1,1)"
       id="rect1765-76-8-9" />
    <rect
       ry="1"
       rx="0.49241999"
       height="11.864"
       width="0.98483002"
       y="184.89"
       x="-28.827"
       transform="scale(-1,1)"
       id="rect1765-27-7-1" />
    <rect
       ry="1"
       rx="0.49241999"
       height="5.9949002"
       width="0.98483002"
       y="187.86"
       x="-26.827"
       transform="scale(-1,1)"
       id="rect1765-15-5-2" />
    <rect
       ry="1"
       rx="0.49241999"
       height="11.864"
       width="0.98483002"
       y="184.89"
       x="-24.827"
       transform="scale(-1,1)"
       id="rect1765-8-2-7" />
    <rect
       ry="1"
       rx="0.49241999"
       height="5.9949002"
       width="0.98483002"
       y="187.86"
       x="-22.827"
       transform="scale(-1,1)"
       id="rect1765-15-8-4-0" />
    <rect
       ry="1"
       rx="0.49241999"
       height="5.9257998"
       width="0.98483002"
       y="187.89"
       x="-50.827"
       transform="scale(-1,1)"
       id="rect1765-6-5-9" />
    <rect
       ry="1"
       rx="0.49241999"
       height="11.864"
       width="0.98483002"
       y="184.89"
       x="-48.827"
       transform="scale(-1,1)"
       id="rect1765-9-8-0-3" />
    <rect
       ry="1"
       rx="0.49241999"
       height="17.921"
       width="0.98483002"
       y="181.89999"
       x="-46.827"
       transform="scale(-1,1)"
       id="rect1765-2-4-5-6" />
    <rect
       ry="1"
       rx="0.49241999"
       height="11.864"
       width="0.98483002"
       y="184.89"
       x="-44.827"
       transform="scale(-1,1)"
       id="rect1765-1-8-7-0" />
    <rect
       ry="1"
       rx="0.49241999"
       height="11.864"
       width="0.98483002"
       y="184.89"
       x="-56.827"
       transform="scale(-1,1)"
       id="rect1765-9-8-2-6" />
    <rect
       ry="1"
       rx="0.49241999"
       height="18.01"
       width="0.98483002"
       y="181.82001"
       x="-54.827"
       transform="scale(-1,1)"
       id="rect1765-2-4-7-2" />
    <rect
       ry="1"
       rx="0.49241999"
       height="11.864"
       width="0.98483002"
       y="184.89"
       x="-52.827"
       transform="scale(-1,1)"
       id="rect1765-1-8-2-6" />
  </g>
</svg>
