<svg width="40" height="40" version="1.1" viewBox="0 0 10.583 10.583" xmlns="http://www.w3.org/2000/svg">
 <g transform="translate(0 -286.42)">
  <g transform="matrix(.26458 0 0 .26458 -3.2009 83.522)">
   <rect x="12.098" y="766.85" width="40" height="40" fill="#141414"/>
   <path d="m32.861 773.54c-5.2742-2.8e-4 -10.894 6.82-16.527 13.835h31.916c-5.218-7.0649-10.136-13.835-15.389-13.835z" fill="none" stroke="#0f82af" stroke-width="1.5"/>
   <rect x="14.319" y="787" width="35.886" height="10.076" fill="#141414"/>
   <path d="m15.734 786.86c1.4015-6.8688 2.8028-13.737 4.1151-13.737 1.3123 8e-5 2.5359 6.8679 3.845 13.82 1.3091 6.9523 2.7034 13.988 4.1016 14.001 1.3982 0.0134 2.7994-6.9955 4.2005-14.004" fill="none" stroke="#4ecac2" stroke-width="1.5"/>
   <rect x="14.098" y="770.85" width="1" height="32" fill="#fff"/>
   <path d="m32.206 786.86c1.3807-6.9564 2.7612-13.912 4.054-13.912s2.4982 6.9554 3.7879 13.996 2.6633 14.166 4.0407 14.18c1.3774 0.0136 2.7578-7.0846 4.1382-14.182" fill="none" stroke="#4ecac2" stroke-width="1.5"/>
   <rect transform="rotate(90)" x="786.35" y="-50.098" width="1" height="36" fill="#fff"/>
  </g>
 </g>
</svg>
