<svg width="40" height="40" version="1.1" viewBox="0 0 10.583 10.583" xmlns="http://www.w3.org/2000/svg">
 <g transform="translate(0 -286.42)">
  <g transform="matrix(.26458 0 0 .26458 -3.0427 57.944)">
   <path d="m11.5 863.52h40v40h-40z" fill="#141414"/>
   <path d="m13.721 883.67h35.886v10.076h-35.886z" fill="#141414"/>
   <g fill="none" stroke="#4ecac2">
    <path d="m14.388 883.53c1.4015-6.8688 2.8028-13.737 4.1151-13.737 1.3123 8e-5 2.5359 6.8679 3.845 13.82 1.3091 6.9523 2.7034 13.988 4.1016 14.001 1.3982 0.0134 2.7994-6.9955 4.2005-14.004"/>
    <path d="m30.86 883.53c1.3807-6.9564 2.7612-13.912 4.054-13.912s2.4982 6.9554 3.7879 13.996 2.6633 14.166 4.0407 14.18c1.3774 0.0136 2.7578-7.0846 4.1382-14.182"/>
   </g>
   <g fill-rule="evenodd" shape-rendering="auto">
    <path d="m22.543 873.94c-0.61895-5e-5 -1.045 0.45209-1.4219 1.0059-0.37688 0.55377-0.72753 1.2911-1.082 2.166-0.70901 1.7499-1.4166 4.044-2.123 6.332l0.95508 0.29492c0.70649-2.288 1.4124-4.5702 2.0938-6.252 0.34069-0.84086 0.68011-1.5314 0.98438-1.9785 0.30426-0.44706 0.55119-0.56836 0.59375-0.56836 0.04257 1e-5 0.27027 0.11319 0.55664 0.5586s0.60105 1.1382 0.91406 1.9824c0.62603 1.6885 1.2633 3.9847 1.9238 6.3027 0.66053 2.3181 1.3437 4.6568 2.0508 6.4453 0.35355 0.89423 0.70934 1.6506 1.0977 2.2188 0.38831 0.56815 0.8359 1.0234 1.4648 1.0273 0.62896 4e-3 1.0817-0.44907 1.4727-1.0137 0.39092-0.56461 0.75114-1.3162 1.1113-2.209 0.72037-1.7856 1.4265-4.1284 2.1328-6.4629l-0.95703-0.28906c-0.70628 2.3344-1.412 4.6629-2.1035 6.377-0.34575 0.85703-0.69132 1.5613-1.0059 2.0156-0.31454 0.45428-0.56871 0.58251-0.64453 0.58203-0.07585-4.8e-4 -0.33159-0.13392-0.64453-0.5918-0.31294-0.45787-0.65509-1.1639-0.99414-2.0215-0.67809-1.7151-1.3583-4.038-2.0176-6.3516-0.65925-2.3136-1.2978-4.6199-1.9492-6.377-0.32573-0.87855-0.6515-1.6185-1.0098-2.1758-0.35827-0.55723-0.7795-1.0175-1.3984-1.0176z" color="#000000" color-rendering="auto" dominant-baseline="auto" fill="#0f82af" image-rendering="auto" solid-color="#000000" style="font-feature-settings:normal;font-variant-alternates:normal;font-variant-caps:normal;font-variant-ligatures:normal;font-variant-numeric:normal;font-variant-position:normal;isolation:auto;mix-blend-mode:normal;shape-padding:0;text-decoration-color:#000000;text-decoration-line:none;text-decoration-style:solid;text-indent:0;text-orientation:mixed;text-transform:none;white-space:normal"/>
    <path d="m39.088 873.82c-0.62211-6e-5 -1.0394 0.45948-1.4102 1.0195-0.37077 0.56005-0.7154 1.3077-1.0645 2.1934-0.6981 1.7712-1.3958 4.093-2.0918 6.4102l0.95898 0.28907c0.696-2.3172 1.3909-4.6299 2.0625-6.334 0.33582-0.85206 0.66849-1.5523 0.96875-2.0059 0.30026-0.45354 0.5466-0.57227 0.57617-0.57226 0.01479 0 0.06101 4e-3 0.16211 0.0898 0.1011 0.0856 0.23756 0.24665 0.37891 0.47266 0.2827 0.45201 0.59184 1.1542 0.90039 2.0098 0.61711 1.7111 1.2458 4.0372 1.8965 6.3848 0.6507 2.3475 1.3214 4.7152 2.0176 6.5254 0.34809 0.90509 0.70001 1.6695 1.082 2.2441s0.81971 1.0389 1.4512 1.043c0.63146 4e-3 1.0763-0.45632 1.4609-1.0274 0.3846-0.57102 0.73911-1.3327 1.0938-2.2363 0.03145-0.0801 0.06235-0.17549 0.09375-0.25781v-3.084c-0.34443 1.0951-0.68646 2.1129-1.0254 2.9766-0.34082 0.86846-0.68179 1.5821-0.99219 2.043-0.31039 0.46085-0.56018 0.58634-0.62305 0.58594-0.06287-4.1e-4 -0.31813-0.1312-0.62695-0.59571-0.30883-0.4645-0.64625-1.1818-0.98047-2.0508-0.66844-1.738-1.3388-4.0905-1.9883-6.4336-0.64949-2.3431-1.2785-4.6786-1.9199-6.457-0.32071-0.88922-0.63982-1.6378-0.99219-2.2012-0.17618-0.28171-0.36016-0.51892-0.58008-0.70508-0.21992-0.18617-0.49755-0.32615-0.80859-0.32617z" color="#000000" color-rendering="auto" dominant-baseline="auto" fill="#0f82af" image-rendering="auto" solid-color="#000000" style="font-feature-settings:normal;font-variant-alternates:normal;font-variant-caps:normal;font-variant-ligatures:normal;font-variant-numeric:normal;font-variant-position:normal;isolation:auto;mix-blend-mode:normal;shape-padding:0;text-decoration-color:#000000;text-decoration-line:none;text-decoration-style:solid;text-indent:0;text-orientation:mixed;text-transform:none;white-space:normal"/>
    <path d="m26.607 878.62c-0.95186-2e-5 -1.7156 0.70826-2.4531 1.5977-0.73754 0.88939-1.458 2.0334-2.1738 3.166l0.8457 0.53321c0.71582-1.1326 1.4264-2.2531 2.0977-3.0625 0.67121-0.80942 1.295-1.2344 1.6836-1.2344 0.38864 1e-5 0.95189 0.41286 1.5664 1.2227 0.61452 0.8098 1.2591 1.9381 1.9297 3.0879 0.67055 1.1498 1.3663 2.3174 2.1035 3.2285 0.73723 0.91107 1.5313 1.6337 2.5156 1.6367 0.98426 3e-3 1.7812-0.71476 2.5312-1.623 0.75003-0.90829 1.4719-2.0768 2.1875-3.2324l-0.85156-0.52539c-0.71561 1.1556-1.425 2.297-2.1055 3.1211-0.6805 0.82408-1.3139 1.261-1.7578 1.2598-0.44386-1e-3 -1.0759-0.44226-1.7422-1.2656-0.66626-0.82337-1.3509-1.9604-2.0176-3.1035-0.66666-1.1431-1.3162-2.2936-1.9961-3.1894-0.67985-0.8959-1.4114-1.6172-2.3633-1.6172z" color="#000000" color-rendering="auto" dominant-baseline="auto" fill="#073a4e" image-rendering="auto" solid-color="#000000" style="font-feature-settings:normal;font-variant-alternates:normal;font-variant-caps:normal;font-variant-ligatures:normal;font-variant-numeric:normal;font-variant-position:normal;isolation:auto;mix-blend-mode:normal;shape-padding:0;text-decoration-color:#000000;text-decoration-line:none;text-decoration-style:solid;text-indent:0;text-orientation:mixed;text-transform:none;white-space:normal"/>
    <path d="m43.371 878.56c-0.9498-2e-5 -1.6994 0.72065-2.4258 1.6211-0.72636 0.90044-1.4354 2.058-2.1406 3.2051l0.85156 0.52344c0.70519-1.1471 1.4049-2.2816 2.0664-3.1016 0.66148-0.82001 1.2776-1.248 1.6484-1.248 0.3708 0 0.92748 0.41379 1.5332 1.2344s1.2418 1.9646 1.9023 3.1289c0.66056 1.1643 1.3443 2.3472 2.0703 3.2695 0.2402 0.30516 0.49026 0.57398 0.74805 0.81836v-1.4902c-0.64453-0.83001-1.3052-1.9566-1.9492-3.0918-0.6568-1.1577-1.2974-2.3217-1.9668-3.2285-0.66942-0.90686-1.3881-1.6406-2.3379-1.6406z" color="#000000" color-rendering="auto" dominant-baseline="auto" fill="#073a4e" image-rendering="auto" solid-color="#000000" style="font-feature-settings:normal;font-variant-alternates:normal;font-variant-caps:normal;font-variant-ligatures:normal;font-variant-numeric:normal;font-variant-position:normal;isolation:auto;mix-blend-mode:normal;shape-padding:0;text-decoration-color:#000000;text-decoration-line:none;text-decoration-style:solid;text-indent:0;text-orientation:mixed;text-transform:none;white-space:normal"/>
   </g>
   <path d="m49.765 883.02v1h-36.265v-1z" fill="#fff"/>
   <path d="m13.5 867.52h1v32h-1z" fill="#fff"/>
  </g>
 </g>
</svg>
