<svg width="40" height="40" version="1.1" viewBox="0 0 10.583 10.583" xmlns="http://www.w3.org/2000/svg"><g fill="#4ecac2"><rect x="3.0413" y=".74328" width="1.0012" height="1.0762"/><rect x="4.2227" y=".74328" width="1.0012" height="1.0762"/><rect x="5.404" y=".74328" width="1.0012" height="1.0762"/><rect x="6.5854" y=".74328" width="1.0012" height="1.0762"/><rect x="1.86" y="1.9156" width="1.0012" height="1.0762"/><rect x="3.0413" y="1.9156" width="1.0012" height="1.0762"/><rect x="4.2227" y="1.9156" width="1.0012" height="1.0762"/><rect x="5.404" y="1.9156" width="1.0012" height="1.0762"/><rect x="6.5854" y="1.9156" width="1.0012" height="1.0762"/><rect x="7.7667" y="1.9156" width="1.0012" height="1.0762"/><rect x=".67859" y="3.0879" width="1.0012" height="1.0762"/><rect x="1.86" y="3.0879" width="1.0012" height="1.0762"/><rect x="4.2227" y="3.0879" width="1.0012" height="1.0762"/><rect x="5.404" y="3.0879" width="1.0012" height="1.0762"/><rect x="7.7667" y="3.0879" width="1.0012" height="1.0762"/><rect x="8.9481" y="3.0879" width="1.0012" height="1.0762"/><rect x=".67859" y="4.2603" width="1.0012" height="1.0762"/><rect x="1.86" y="4.2603" width="1.0012" height="1.0762"/><rect x="4.2227" y="4.2603" width="1.0012" height="1.0762"/><rect x="5.404" y="4.2603" width="1.0012" height="1.0762"/><rect x="7.7667" y="4.2603" width="1.0012" height="1.0762"/><rect x="8.9481" y="4.2603" width="1.0012" height="1.0762"/><rect x=".67859" y="5.4326" width="1.0012" height="1.0762"/><rect x="1.86" y="5.4326" width="1.0012" height="1.0762"/><rect x="3.0413" y="5.4326" width="1.0012" height="1.0762"/><rect x="4.2227" y="5.4326" width="1.0012" height="1.0762"/><rect x="5.404" y="5.4326" width="1.0012" height="1.0762"/><rect x="6.5854" y="5.4326" width="1.0012" height="1.0762"/><rect x="7.7667" y="5.4326" width="1.0012" height="1.0762"/><rect x="8.9481" y="5.4326" width="1.0012" height="1.0762"/><rect x="3.0413" y="6.6049" width="1.0012" height="1.0762"/><rect x="6.5854" y="6.6049" width="1.0012" height="1.0762"/><rect x="1.86" y="7.7773" width="1.0012" height="1.0762"/><rect x="4.2227" y="7.7773" width="1.0012" height="1.0762"/><rect x="5.404" y="7.7773" width="1.0012" height="1.0762"/><rect x="7.7667" y="7.7773" width="1.0012" height="1.0762"/><rect x=".67859" y="8.9496" width="1.0012" height="1.0762"/><rect x="3.0413" y="8.9496" width="1.0012" height="1.0762"/><rect x="6.5854" y="8.9496" width="1.0012" height="1.0762"/><rect x="8.9481" y="8.9496" width="1.0012" height="1.0762"/></g></svg>
