<?xml version="1.0" encoding="UTF-8" standalone="no"?>
<svg
   xmlns:dc="http://purl.org/dc/elements/1.1/"
   xmlns:cc="http://creativecommons.org/ns#"
   xmlns:rdf="http://www.w3.org/1999/02/22-rdf-syntax-ns#"
   xmlns:svg="http://www.w3.org/2000/svg"
   xmlns="http://www.w3.org/2000/svg"
   id="svg8858"
   viewBox="0 0 10.583 10.583"
   version="1.1"
   height="40"
   width="40">
  <metadata
     id="metadata8864">
    <rdf:RDF>
      <cc:Work
         rdf:about="">
        <dc:format>image/svg+xml</dc:format>
        <dc:type
           rdf:resource="http://purl.org/dc/dcmitype/StillImage" />
        <dc:title></dc:title>
      </cc:Work>
    </rdf:RDF>
  </metadata>
  <defs
     id="defs8862" />
  <g
     transform="matrix(1.3319796,0,0,1.3319796,-0.22527807,-0.24675383)"
     id="g9450">
    <g
       id="g8856"
       transform="matrix(0.32850051,0,0,0.32850051,0.45567284,0.49911214)"
       style="fill:#4ecac2">
      <rect
         x="3.0413001"
         y="0.74327999"
         width="1.0012"
         height="1.0762"
         id="rect8776" />
      <rect
         x="4.2227001"
         y="0.74327999"
         width="1.0012"
         height="1.0762"
         id="rect8778" />
      <rect
         x="5.4039998"
         y="0.74327999"
         width="1.0012"
         height="1.0762"
         id="rect8780" />
      <rect
         x="6.5854001"
         y="0.74327999"
         width="1.0012"
         height="1.0762"
         id="rect8782" />
      <rect
         x="1.86"
         y="1.9155999"
         width="1.0012"
         height="1.0762"
         id="rect8784" />
      <rect
         x="3.0413001"
         y="1.9155999"
         width="1.0012"
         height="1.0762"
         id="rect8786" />
      <rect
         x="4.2227001"
         y="1.9155999"
         width="1.0012"
         height="1.0762"
         id="rect8788" />
      <rect
         x="5.4039998"
         y="1.9155999"
         width="1.0012"
         height="1.0762"
         id="rect8790" />
      <rect
         x="6.5854001"
         y="1.9155999"
         width="1.0012"
         height="1.0762"
         id="rect8792" />
      <rect
         x="7.7666998"
         y="1.9155999"
         width="1.0012"
         height="1.0762"
         id="rect8794" />
      <rect
         x="0.67859"
         y="3.0878999"
         width="1.0012"
         height="1.0762"
         id="rect8796" />
      <rect
         x="1.86"
         y="3.0878999"
         width="1.0012"
         height="1.0762"
         id="rect8798" />
      <rect
         x="4.2227001"
         y="3.0878999"
         width="1.0012"
         height="1.0762"
         id="rect8800" />
      <rect
         x="5.4039998"
         y="3.0878999"
         width="1.0012"
         height="1.0762"
         id="rect8802" />
      <rect
         x="7.7666998"
         y="3.0878999"
         width="1.0012"
         height="1.0762"
         id="rect8804" />
      <rect
         x="8.9481001"
         y="3.0878999"
         width="1.0012"
         height="1.0762"
         id="rect8806" />
      <rect
         x="0.67859"
         y="4.2603002"
         width="1.0012"
         height="1.0762"
         id="rect8808" />
      <rect
         x="1.86"
         y="4.2603002"
         width="1.0012"
         height="1.0762"
         id="rect8810" />
      <rect
         x="4.2227001"
         y="4.2603002"
         width="1.0012"
         height="1.0762"
         id="rect8812" />
      <rect
         x="5.4039998"
         y="4.2603002"
         width="1.0012"
         height="1.0762"
         id="rect8814" />
      <rect
         x="7.7666998"
         y="4.2603002"
         width="1.0012"
         height="1.0762"
         id="rect8816" />
      <rect
         x="8.9481001"
         y="4.2603002"
         width="1.0012"
         height="1.0762"
         id="rect8818" />
      <rect
         x="0.67859"
         y="5.4326"
         width="1.0012"
         height="1.0762"
         id="rect8820" />
      <rect
         x="1.86"
         y="5.4326"
         width="1.0012"
         height="1.0762"
         id="rect8822" />
      <rect
         x="3.0413001"
         y="5.4326"
         width="1.0012"
         height="1.0762"
         id="rect8824" />
      <rect
         x="4.2227001"
         y="5.4326"
         width="1.0012"
         height="1.0762"
         id="rect8826" />
      <rect
         x="5.4039998"
         y="5.4326"
         width="1.0012"
         height="1.0762"
         id="rect8828" />
      <rect
         x="6.5854001"
         y="5.4326"
         width="1.0012"
         height="1.0762"
         id="rect8830" />
      <rect
         x="7.7666998"
         y="5.4326"
         width="1.0012"
         height="1.0762"
         id="rect8832" />
      <rect
         x="8.9481001"
         y="5.4326"
         width="1.0012"
         height="1.0762"
         id="rect8834" />
      <rect
         x="3.0413001"
         y="6.6048999"
         width="1.0012"
         height="1.0762"
         id="rect8836" />
      <rect
         x="6.5854001"
         y="6.6048999"
         width="1.0012"
         height="1.0762"
         id="rect8838" />
      <rect
         x="1.86"
         y="7.7772999"
         width="1.0012"
         height="1.0762"
         id="rect8840" />
      <rect
         x="4.2227001"
         y="7.7772999"
         width="1.0012"
         height="1.0762"
         id="rect8842" />
      <rect
         x="5.4039998"
         y="7.7772999"
         width="1.0012"
         height="1.0762"
         id="rect8844" />
      <rect
         x="7.7666998"
         y="7.7772999"
         width="1.0012"
         height="1.0762"
         id="rect8846" />
      <rect
         x="0.67859"
         y="8.9496002"
         width="1.0012"
         height="1.0762"
         id="rect8848" />
      <rect
         x="3.0413001"
         y="8.9496002"
         width="1.0012"
         height="1.0762"
         id="rect8850" />
      <rect
         x="6.5854001"
         y="8.9496002"
         width="1.0012"
         height="1.0762"
         id="rect8852" />
      <rect
         x="8.9481001"
         y="8.9496002"
         width="1.0012"
         height="1.0762"
         id="rect8854" />
    </g>
  </g>
  <g
     transform="matrix(1.3319796,0,0,1.3319796,4.7084411,-0.24675383)"
     id="g9534">
    <g
       style="fill:#4ecac2"
       transform="matrix(0.32850051,0,0,0.32850051,0.45567284,0.49911214)"
       id="g9532">
      <rect
         id="rect9452"
         height="1.0762"
         width="1.0012"
         y="0.74327999"
         x="3.0413001" />
      <rect
         id="rect9454"
         height="1.0762"
         width="1.0012"
         y="0.74327999"
         x="4.2227001" />
      <rect
         id="rect9456"
         height="1.0762"
         width="1.0012"
         y="0.74327999"
         x="5.4039998" />
      <rect
         id="rect9458"
         height="1.0762"
         width="1.0012"
         y="0.74327999"
         x="6.5854001" />
      <rect
         id="rect9460"
         height="1.0762"
         width="1.0012"
         y="1.9155999"
         x="1.86" />
      <rect
         id="rect9462"
         height="1.0762"
         width="1.0012"
         y="1.9155999"
         x="3.0413001" />
      <rect
         id="rect9464"
         height="1.0762"
         width="1.0012"
         y="1.9155999"
         x="4.2227001" />
      <rect
         id="rect9466"
         height="1.0762"
         width="1.0012"
         y="1.9155999"
         x="5.4039998" />
      <rect
         id="rect9468"
         height="1.0762"
         width="1.0012"
         y="1.9155999"
         x="6.5854001" />
      <rect
         id="rect9470"
         height="1.0762"
         width="1.0012"
         y="1.9155999"
         x="7.7666998" />
      <rect
         id="rect9472"
         height="1.0762"
         width="1.0012"
         y="3.0878999"
         x="0.67859" />
      <rect
         id="rect9474"
         height="1.0762"
         width="1.0012"
         y="3.0878999"
         x="1.86" />
      <rect
         id="rect9476"
         height="1.0762"
         width="1.0012"
         y="3.0878999"
         x="4.2227001" />
      <rect
         id="rect9478"
         height="1.0762"
         width="1.0012"
         y="3.0878999"
         x="5.4039998" />
      <rect
         id="rect9480"
         height="1.0762"
         width="1.0012"
         y="3.0878999"
         x="7.7666998" />
      <rect
         id="rect9482"
         height="1.0762"
         width="1.0012"
         y="3.0878999"
         x="8.9481001" />
      <rect
         id="rect9484"
         height="1.0762"
         width="1.0012"
         y="4.2603002"
         x="0.67859" />
      <rect
         id="rect9486"
         height="1.0762"
         width="1.0012"
         y="4.2603002"
         x="1.86" />
      <rect
         id="rect9488"
         height="1.0762"
         width="1.0012"
         y="4.2603002"
         x="4.2227001" />
      <rect
         id="rect9490"
         height="1.0762"
         width="1.0012"
         y="4.2603002"
         x="5.4039998" />
      <rect
         id="rect9492"
         height="1.0762"
         width="1.0012"
         y="4.2603002"
         x="7.7666998" />
      <rect
         id="rect9494"
         height="1.0762"
         width="1.0012"
         y="4.2603002"
         x="8.9481001" />
      <rect
         id="rect9496"
         height="1.0762"
         width="1.0012"
         y="5.4326"
         x="0.67859" />
      <rect
         id="rect9498"
         height="1.0762"
         width="1.0012"
         y="5.4326"
         x="1.86" />
      <rect
         id="rect9500"
         height="1.0762"
         width="1.0012"
         y="5.4326"
         x="3.0413001" />
      <rect
         id="rect9502"
         height="1.0762"
         width="1.0012"
         y="5.4326"
         x="4.2227001" />
      <rect
         id="rect9504"
         height="1.0762"
         width="1.0012"
         y="5.4326"
         x="5.4039998" />
      <rect
         id="rect9506"
         height="1.0762"
         width="1.0012"
         y="5.4326"
         x="6.5854001" />
      <rect
         id="rect9508"
         height="1.0762"
         width="1.0012"
         y="5.4326"
         x="7.7666998" />
      <rect
         id="rect9510"
         height="1.0762"
         width="1.0012"
         y="5.4326"
         x="8.9481001" />
      <rect
         id="rect9512"
         height="1.0762"
         width="1.0012"
         y="6.6048999"
         x="3.0413001" />
      <rect
         id="rect9514"
         height="1.0762"
         width="1.0012"
         y="6.6048999"
         x="6.5854001" />
      <rect
         id="rect9516"
         height="1.0762"
         width="1.0012"
         y="7.7772999"
         x="1.86" />
      <rect
         id="rect9518"
         height="1.0762"
         width="1.0012"
         y="7.7772999"
         x="4.2227001" />
      <rect
         id="rect9520"
         height="1.0762"
         width="1.0012"
         y="7.7772999"
         x="5.4039998" />
      <rect
         id="rect9522"
         height="1.0762"
         width="1.0012"
         y="7.7772999"
         x="7.7666998" />
      <rect
         id="rect9524"
         height="1.0762"
         width="1.0012"
         y="8.9496002"
         x="0.67859" />
      <rect
         id="rect9526"
         height="1.0762"
         width="1.0012"
         y="8.9496002"
         x="3.0413001" />
      <rect
         id="rect9528"
         height="1.0762"
         width="1.0012"
         y="8.9496002"
         x="6.5854001" />
      <rect
         id="rect9530"
         height="1.0762"
         width="1.0012"
         y="8.9496002"
         x="8.9481001" />
    </g>
  </g>
  <g
     transform="matrix(1.3319796,0,0,1.3319796,-0.16554781,4.5077745)"
     id="g9618">
    <g
       style="fill:#4ecac2"
       transform="matrix(0.32850051,0,0,0.32850051,0.45567284,0.49911214)"
       id="g9616">
      <rect
         id="rect9536"
         height="1.0762"
         width="1.0012"
         y="0.74327999"
         x="3.0413001" />
      <rect
         id="rect9538"
         height="1.0762"
         width="1.0012"
         y="0.74327999"
         x="4.2227001" />
      <rect
         id="rect9540"
         height="1.0762"
         width="1.0012"
         y="0.74327999"
         x="5.4039998" />
      <rect
         id="rect9542"
         height="1.0762"
         width="1.0012"
         y="0.74327999"
         x="6.5854001" />
      <rect
         id="rect9544"
         height="1.0762"
         width="1.0012"
         y="1.9155999"
         x="1.86" />
      <rect
         id="rect9546"
         height="1.0762"
         width="1.0012"
         y="1.9155999"
         x="3.0413001" />
      <rect
         id="rect9548"
         height="1.0762"
         width="1.0012"
         y="1.9155999"
         x="4.2227001" />
      <rect
         id="rect9550"
         height="1.0762"
         width="1.0012"
         y="1.9155999"
         x="5.4039998" />
      <rect
         id="rect9552"
         height="1.0762"
         width="1.0012"
         y="1.9155999"
         x="6.5854001" />
      <rect
         id="rect9554"
         height="1.0762"
         width="1.0012"
         y="1.9155999"
         x="7.7666998" />
      <rect
         id="rect9556"
         height="1.0762"
         width="1.0012"
         y="3.0878999"
         x="0.67859" />
      <rect
         id="rect9558"
         height="1.0762"
         width="1.0012"
         y="3.0878999"
         x="1.86" />
      <rect
         id="rect9560"
         height="1.0762"
         width="1.0012"
         y="3.0878999"
         x="4.2227001" />
      <rect
         id="rect9562"
         height="1.0762"
         width="1.0012"
         y="3.0878999"
         x="5.4039998" />
      <rect
         id="rect9564"
         height="1.0762"
         width="1.0012"
         y="3.0878999"
         x="7.7666998" />
      <rect
         id="rect9566"
         height="1.0762"
         width="1.0012"
         y="3.0878999"
         x="8.9481001" />
      <rect
         id="rect9568"
         height="1.0762"
         width="1.0012"
         y="4.2603002"
         x="0.67859" />
      <rect
         id="rect9570"
         height="1.0762"
         width="1.0012"
         y="4.2603002"
         x="1.86" />
      <rect
         id="rect9572"
         height="1.0762"
         width="1.0012"
         y="4.2603002"
         x="4.2227001" />
      <rect
         id="rect9574"
         height="1.0762"
         width="1.0012"
         y="4.2603002"
         x="5.4039998" />
      <rect
         id="rect9576"
         height="1.0762"
         width="1.0012"
         y="4.2603002"
         x="7.7666998" />
      <rect
         id="rect9578"
         height="1.0762"
         width="1.0012"
         y="4.2603002"
         x="8.9481001" />
      <rect
         id="rect9580"
         height="1.0762"
         width="1.0012"
         y="5.4326"
         x="0.67859" />
      <rect
         id="rect9582"
         height="1.0762"
         width="1.0012"
         y="5.4326"
         x="1.86" />
      <rect
         id="rect9584"
         height="1.0762"
         width="1.0012"
         y="5.4326"
         x="3.0413001" />
      <rect
         id="rect9586"
         height="1.0762"
         width="1.0012"
         y="5.4326"
         x="4.2227001" />
      <rect
         id="rect9588"
         height="1.0762"
         width="1.0012"
         y="5.4326"
         x="5.4039998" />
      <rect
         id="rect9590"
         height="1.0762"
         width="1.0012"
         y="5.4326"
         x="6.5854001" />
      <rect
         id="rect9592"
         height="1.0762"
         width="1.0012"
         y="5.4326"
         x="7.7666998" />
      <rect
         id="rect9594"
         height="1.0762"
         width="1.0012"
         y="5.4326"
         x="8.9481001" />
      <rect
         id="rect9596"
         height="1.0762"
         width="1.0012"
         y="6.6048999"
         x="3.0413001" />
      <rect
         id="rect9598"
         height="1.0762"
         width="1.0012"
         y="6.6048999"
         x="6.5854001" />
      <rect
         id="rect9600"
         height="1.0762"
         width="1.0012"
         y="7.7772999"
         x="1.86" />
      <rect
         id="rect9602"
         height="1.0762"
         width="1.0012"
         y="7.7772999"
         x="4.2227001" />
      <rect
         id="rect9604"
         height="1.0762"
         width="1.0012"
         y="7.7772999"
         x="5.4039998" />
      <rect
         id="rect9606"
         height="1.0762"
         width="1.0012"
         y="7.7772999"
         x="7.7666998" />
      <rect
         id="rect9608"
         height="1.0762"
         width="1.0012"
         y="8.9496002"
         x="0.67859" />
      <rect
         id="rect9610"
         height="1.0762"
         width="1.0012"
         y="8.9496002"
         x="3.0413001" />
      <rect
         id="rect9612"
         height="1.0762"
         width="1.0012"
         y="8.9496002"
         x="6.5854001" />
      <rect
         id="rect9614"
         height="1.0762"
         width="1.0012"
         y="8.9496002"
         x="8.9481001" />
    </g>
  </g>
  <g
     id="g9702"
     transform="matrix(1.3319796,0,0,1.3319796,4.7681714,4.5077745)">
    <g
       id="g9700"
       transform="matrix(0.32850051,0,0,0.32850051,0.45567284,0.49911214)"
       style="fill:#4ecac2">
      <rect
         x="3.0413001"
         y="0.74327999"
         width="1.0012"
         height="1.0762"
         id="rect9620" />
      <rect
         x="4.2227001"
         y="0.74327999"
         width="1.0012"
         height="1.0762"
         id="rect9622" />
      <rect
         x="5.4039998"
         y="0.74327999"
         width="1.0012"
         height="1.0762"
         id="rect9624" />
      <rect
         x="6.5854001"
         y="0.74327999"
         width="1.0012"
         height="1.0762"
         id="rect9626" />
      <rect
         x="1.86"
         y="1.9155999"
         width="1.0012"
         height="1.0762"
         id="rect9628" />
      <rect
         x="3.0413001"
         y="1.9155999"
         width="1.0012"
         height="1.0762"
         id="rect9630" />
      <rect
         x="4.2227001"
         y="1.9155999"
         width="1.0012"
         height="1.0762"
         id="rect9632" />
      <rect
         x="5.4039998"
         y="1.9155999"
         width="1.0012"
         height="1.0762"
         id="rect9634" />
      <rect
         x="6.5854001"
         y="1.9155999"
         width="1.0012"
         height="1.0762"
         id="rect9636" />
      <rect
         x="7.7666998"
         y="1.9155999"
         width="1.0012"
         height="1.0762"
         id="rect9638" />
      <rect
         x="0.67859"
         y="3.0878999"
         width="1.0012"
         height="1.0762"
         id="rect9640" />
      <rect
         x="1.86"
         y="3.0878999"
         width="1.0012"
         height="1.0762"
         id="rect9642" />
      <rect
         x="4.2227001"
         y="3.0878999"
         width="1.0012"
         height="1.0762"
         id="rect9644" />
      <rect
         x="5.4039998"
         y="3.0878999"
         width="1.0012"
         height="1.0762"
         id="rect9646" />
      <rect
         x="7.7666998"
         y="3.0878999"
         width="1.0012"
         height="1.0762"
         id="rect9648" />
      <rect
         x="8.9481001"
         y="3.0878999"
         width="1.0012"
         height="1.0762"
         id="rect9650" />
      <rect
         x="0.67859"
         y="4.2603002"
         width="1.0012"
         height="1.0762"
         id="rect9652" />
      <rect
         x="1.86"
         y="4.2603002"
         width="1.0012"
         height="1.0762"
         id="rect9654" />
      <rect
         x="4.2227001"
         y="4.2603002"
         width="1.0012"
         height="1.0762"
         id="rect9656" />
      <rect
         x="5.4039998"
         y="4.2603002"
         width="1.0012"
         height="1.0762"
         id="rect9658" />
      <rect
         x="7.7666998"
         y="4.2603002"
         width="1.0012"
         height="1.0762"
         id="rect9660" />
      <rect
         x="8.9481001"
         y="4.2603002"
         width="1.0012"
         height="1.0762"
         id="rect9662" />
      <rect
         x="0.67859"
         y="5.4326"
         width="1.0012"
         height="1.0762"
         id="rect9664" />
      <rect
         x="1.86"
         y="5.4326"
         width="1.0012"
         height="1.0762"
         id="rect9666" />
      <rect
         x="3.0413001"
         y="5.4326"
         width="1.0012"
         height="1.0762"
         id="rect9668" />
      <rect
         x="4.2227001"
         y="5.4326"
         width="1.0012"
         height="1.0762"
         id="rect9670" />
      <rect
         x="5.4039998"
         y="5.4326"
         width="1.0012"
         height="1.0762"
         id="rect9672" />
      <rect
         x="6.5854001"
         y="5.4326"
         width="1.0012"
         height="1.0762"
         id="rect9674" />
      <rect
         x="7.7666998"
         y="5.4326"
         width="1.0012"
         height="1.0762"
         id="rect9676" />
      <rect
         x="8.9481001"
         y="5.4326"
         width="1.0012"
         height="1.0762"
         id="rect9678" />
      <rect
         x="3.0413001"
         y="6.6048999"
         width="1.0012"
         height="1.0762"
         id="rect9680" />
      <rect
         x="6.5854001"
         y="6.6048999"
         width="1.0012"
         height="1.0762"
         id="rect9682" />
      <rect
         x="1.86"
         y="7.7772999"
         width="1.0012"
         height="1.0762"
         id="rect9684" />
      <rect
         x="4.2227001"
         y="7.7772999"
         width="1.0012"
         height="1.0762"
         id="rect9686" />
      <rect
         x="5.4039998"
         y="7.7772999"
         width="1.0012"
         height="1.0762"
         id="rect9688" />
      <rect
         x="7.7666998"
         y="7.7772999"
         width="1.0012"
         height="1.0762"
         id="rect9690" />
      <rect
         x="0.67859"
         y="8.9496002"
         width="1.0012"
         height="1.0762"
         id="rect9692" />
      <rect
         x="3.0413001"
         y="8.9496002"
         width="1.0012"
         height="1.0762"
         id="rect9694" />
      <rect
         x="6.5854001"
         y="8.9496002"
         width="1.0012"
         height="1.0762"
         id="rect9696" />
      <rect
         x="8.9481001"
         y="8.9496002"
         width="1.0012"
         height="1.0762"
         id="rect9698" />
    </g>
  </g>
</svg>
