<svg width="40" height="40" version="1.1" viewBox="0 0 10.583 10.583" xmlns="http://www.w3.org/2000/svg">
 <g transform="translate(0 -286.42)">
  <g>
   <g transform="matrix(.26458 0 0 .26458 -26.005 156.08)">
    <rect x="98.286" y="492.63" width="40" height="40" fill="#141414"/>
    <g stroke-linejoin="round">
     <g>
      <path d="m133.96 512.38a15.723 15.674 0 0 1-5.6163 12.007l-10.106-12.007z" fill="#01b301" stroke="#01b301"/>
      <path d="m126.33 526.08a15.723 15.674 60 0 1-13.206 1.1396l5.3451-14.756z" fill="#01b3b3" stroke="#01b3b3"/>
      <path d="m110.66 526.32a15.674 15.723 30 0 1-7.5901-10.867l15.451-2.7489z" fill="#0101b3" stroke="#0101b3"/>
      <path d="m102.61 512.87a15.723 15.674 0 0 1 5.6163-12.007l10.106 12.007z" fill="#b301b3" stroke="#b301b3"/>
      <path d="m110.24 499.17a15.723 15.674 60 0 1 13.206-1.1395l-5.3451 14.756z" fill="#b20202" stroke="#b30000"/>
      <path d="m125.91 498.93a15.674 15.723 30 0 1 7.5901 10.867l-15.451 2.7489z" fill="#b3b301" stroke="#b3b301"/>
     </g>
     <path d="m126.27 512.38a8.0332 8.0082 0 0 1-8.0332 8.0082 8.0332 8.0082 0 0 1-8.0332-8.0082 8.0332 8.0082 0 0 1 8.0332-8.0082 8.0332 8.0082 0 0 1 8.0332 8.0082z" fill="#141414" stroke="#141414" stroke-width=".51093"/>
    </g>
   </g>
   <g fill="#f1f1f1" stroke="#000" stroke-width=".75591">
    <g transform="matrix(.26458 0 0 .26458 -18.709 146.1)" aria-label="H">
     <path d="m83.206 533.85h2.0693v14.784h-2.0693v-6.8267h-7.232v6.8267h-2.0693v-14.784h2.0693v6.1653h7.232z" fill="#f1f1f1" stroke="#000" stroke-width=".75591"/>
    </g>
    <g transform="matrix(.26458 0 0 .26458 -12.178 146.1)" aria-label="S">
     <path d="m77.34 547.16q3.2427 0 3.2427-2.2187 0-0.68267-0.29867-1.152-0.27733-0.49067-0.768-0.832-0.49067-0.36267-1.1307-0.61867-0.61867-0.256-1.3227-0.512-0.81067-0.27733-1.536-0.61866-0.72533-0.36267-1.2587-0.832-0.53333-0.49067-0.85333-1.152-0.29867-0.66134-0.29867-1.6 0-1.9413 1.3227-3.0293 1.3227-1.088 3.648-1.088 1.344 0 2.432 0.29867 1.1093 0.27733 1.6213 0.61867l-0.66133 1.6853q-0.448-0.27733-1.344-0.53333-0.87467-0.27734-2.048-0.27734-0.59733 0-1.1093 0.128t-0.896 0.384-0.61867 0.66134q-0.21333 0.384-0.21333 0.91733 0 0.59733 0.23467 1.0027 0.23467 0.40533 0.66133 0.72533 0.42667 0.29867 0.98133 0.55467 0.576 0.256 1.2587 0.512 0.96 0.384 1.7493 0.768 0.81067 0.384 1.3867 0.91733 0.59733 0.53333 0.91733 1.28 0.32 0.72533 0.32 1.7707 0 1.9413-1.4293 2.9867-1.408 1.0453-3.9893 1.0453-0.87467 0-1.6213-0.128-0.72533-0.10667-1.3013-0.256-0.576-0.17067-1.0027-0.34134-0.40533-0.192-0.64-0.32l0.61867-1.7067q0.49067 0.27733 1.4933 0.61866 1.0027 0.34134 2.4533 0.34134z" fill="#f1f1f1" stroke="#000" stroke-width=".75591"/>
    </g>
    <g transform="matrix(.26458 0 0 .26458 -15.439 151.52)" aria-label="L">
     <path d="m82.801 546.84v1.792h-8.896v-14.784h2.0693v12.992z" fill="#f1f1f1" stroke="#000" stroke-width=".75591"/>
    </g>
   </g>
  </g>
 </g>
</svg>
