<svg id="svg1619" width="40" height="40" version="1.1" viewBox="0 0 10.583 10.583" xmlns="http://www.w3.org/2000/svg">
 <g id="layer1" transform="translate(0 -286.42)">
  <g id="g1718" transform="matrix(.26458 0 0 .26458 -25.956 204.87)">
   <g>
    <rect id="rect827-5-1-4-9-4-4" x="98.103" y="308.2" width="40" height="40" fill="#141414"/>
    <rect id="rect2641-2" x="100.1" y="333.26" width="6" height="1" fill="#4ecac2"/>
    <rect id="rect2641-6-2" transform="matrix(.88508 -.46544 .44532 .89537 0 0)" x="-49.795" y="346.25" width="17.493" height="1.0751" fill="#4ecac2"/>
   </g>
   <circle id="path2658-92" cx="108.48" cy="333.76" r="2" fill="none" stroke="#4ecac2" stroke-linejoin="round"/>
   <rect id="rect2641-3-8" transform="scale(-1,1)" x="-136.04" y="325.25" width="6" height="1" fill="#4ecac2"/>
   <circle id="path2658-9-1" transform="scale(-1,1)" cx="-127.66" cy="325.75" r="2" fill="none" stroke="#4ecac2" stroke-linejoin="round"/>
   <rect id="rect2641-3-3-2" transform="scale(-1,1)" x="-136.04" y="341.27" width="6" height="1" fill="#4ecac2"/>
   <circle id="path2658-9-3-4" transform="scale(-1,1)" cx="-127.66" cy="341.77" r="2" fill="none" stroke="#4ecac2" stroke-linejoin="round"/>
   <g id="g2525-7-7" transform="matrix(.43031 0 0 .43031 55.394 297.03)">
    <rect id="rect4534-0-8" x="104" y="30.52" width="20" height="20" rx="4.6478" ry="4.6478" fill="#c80000"/>
    <rect id="rect4534-3-5-6" x="116" y="36.52" width="20" height="20" rx="4.6478" ry="4.6478" fill="#00c800"/>
    <rect id="rect4534-3-6-1-3" x="108" y="42.52" width="20" height="20" rx="4.6478" ry="4.6478" fill="#0000c8"/>
   </g>
  </g>
 </g>
</svg>
