<?xml version="1.0" encoding="UTF-8" standalone="no"?>
<svg
   xmlns:dc="http://purl.org/dc/elements/1.1/"
   xmlns:cc="http://creativecommons.org/ns#"
   xmlns:rdf="http://www.w3.org/1999/02/22-rdf-syntax-ns#"
   xmlns:svg="http://www.w3.org/2000/svg"
   xmlns="http://www.w3.org/2000/svg"
   width="40"
   height="40"
   version="1.1"
   viewBox="0 0 10.583 10.583"
   id="svg921">
  <metadata
     id="metadata927">
    <rdf:RDF>
      <cc:Work
         rdf:about="">
        <dc:format>image/svg+xml</dc:format>
        <dc:type
           rdf:resource="http://purl.org/dc/dcmitype/StillImage" />
        <dc:title></dc:title>
      </cc:Work>
    </rdf:RDF>
  </metadata>
  <defs
     id="defs925" />
  <g
     stroke="#4ecac2"
     stroke-width="2"
     id="g915"
     transform="matrix(0.26458,0,0,0.26458,-61.383,-278.9494)">
    <path
       d="m 268.31,1065.1 -5.2534,3.033 v -6.0661 l 2.6267,1.5165 z"
       fill="#4ecac2"
       stroke-linejoin="round"
       id="path907" />
    <path
       d="m 235.99,1083.8 c 3.9824,0.014 7.9639,0.028 11.298,-3.1289 3.3341,-3.1569 6.0243,-9.4868 9.37,-12.65 3.3457,-3.1637 7.3485,-3.1637 11.35,-3.1637"
       fill="none"
       id="path909" />
    <path
       d="m 268.31,1083.5 -5.2533,3.033 v -6.0661 l 2.6267,1.5165 z"
       fill="#4ecac2"
       stroke-linejoin="round"
       id="path911" />
    <path
       d="m 235.99,1064.8 c 3.9824,-0.014 7.9639,-0.028 11.298,3.1289 3.3341,3.1569 6.0243,9.4868 9.37,12.65 3.3457,3.1637 7.3485,3.1637 11.35,3.1637"
       fill="none"
       id="path913" />
  </g>
</svg>
