<?xml version="1.0" encoding="UTF-8" standalone="no"?>
<svg
   xmlns:dc="http://purl.org/dc/elements/1.1/"
   xmlns:cc="http://creativecommons.org/ns#"
   xmlns:rdf="http://www.w3.org/1999/02/22-rdf-syntax-ns#"
   xmlns:svg="http://www.w3.org/2000/svg"
   xmlns="http://www.w3.org/2000/svg"
   width="40"
   height="40"
   version="1.1"
   viewBox="0 0 10.583 10.583"
   id="svg1200">
  <metadata
     id="metadata1206">
    <rdf:RDF>
      <cc:Work
         rdf:about="">
        <dc:format>image/svg+xml</dc:format>
        <dc:type
           rdf:resource="http://purl.org/dc/dcmitype/StillImage" />
        <dc:title></dc:title>
      </cc:Work>
    </rdf:RDF>
  </metadata>
  <defs
     id="defs1204" />
  <g
     transform="matrix(0.26458,0,0,0.26458,-47.625,-151.65131)"
     stroke-linejoin="round"
     id="g1184">
    <rect
       x="182.28999"
       y="584.87"
       width="16.611"
       height="16.611"
       fill="#141414"
       stroke="#ffffff"
       stroke-width="0.5679"
       id="rect1176" />
    <g
       transform="matrix(1.1364,0,0,1.1364,-38.722,-76.139)"
       fill="#4ecac2"
       stroke="#4ecac2"
       stroke-width="1.192"
       id="g1182">
      <rect
         x="195.88"
         y="588.08002"
         width="7.125"
         height="1.25"
         id="rect1178" />
      <path
         d="m 207.57,588.71 -2.3012,1.3286 -2.3012,1.3286 v -5.3143 l 2.3012,1.3286 z"
         id="path1180" />
    </g>
  </g>
  <g
     transform="matrix(-0.26458,0,0,0.26458,58.183188,-151.65131)"
     stroke-linejoin="round"
     id="g1194">
    <rect
       x="182.28999"
       y="584.87"
       width="16.611"
       height="16.611"
       fill="#141414"
       stroke="#ffffff"
       stroke-width="0.5679"
       id="rect1186" />
    <g
       transform="matrix(1.1364,0,0,1.1364,-38.722,-76.139)"
       fill="#4ecac2"
       stroke="#4ecac2"
       stroke-width="1.192"
       id="g1192">
      <rect
         x="195.88"
         y="588.08002"
         width="7.125"
         height="1.25"
         id="rect1188" />
      <path
         d="m 207.57,588.71 -2.3012,1.3286 -2.3012,1.3286 v -5.3143 l 2.3012,1.3286 z"
         id="path1190" />
    </g>
  </g>
</svg>
