<svg width="40" height="40" version="1.1" viewBox="0 0 10.583 10.583" xmlns="http://www.w3.org/2000/svg">
 <g transform="translate(0 -286.42)">
  <g transform="matrix(.26458 0 0 .26458 -61.383 7.4706)">
   <rect x="232" y="1054.3" width="40" height="40" fill="#141414"/>
   <g stroke="#4ecac2" stroke-width="2">
    <path d="m268.31 1065.1-5.2534 3.033v-6.0661l2.6267 1.5165z" fill="#4ecac2" stroke-linejoin="round"/>
    <path d="m235.99 1083.8c3.9824 0.014 7.9639 0.028 11.298-3.1289s6.0243-9.4868 9.37-12.65c3.3457-3.1637 7.3485-3.1637 11.35-3.1637" fill="none"/>
    <path d="m268.31 1083.5-5.2533 3.033v-6.0661l2.6267 1.5165z" fill="#4ecac2" stroke-linejoin="round"/>
    <path d="m235.99 1064.8c3.9824-0.014 7.9639-0.028 11.298 3.1289s6.0243 9.4868 9.37 12.65c3.3457 3.1637 7.3485 3.1637 11.35 3.1637" fill="none"/>
   </g>
  </g>
 </g>
</svg>
