<svg width="40" height="40" version="1.1" viewBox="0 0 10.583 10.583" xmlns="http://www.w3.org/2000/svg" xmlns:xlink="http://www.w3.org/1999/xlink">
 <g transform="translate(0 -286.42)">
  <g transform="matrix(.26458 0 0 .26458 -68.795 234.84)">
   <rect x="260.01" y="194.95" width="40" height="40" fill="#141414"/>
   <circle id="path1946-9-6" cx="267.21" cy="214.95" r="4" fill="#4ecac2"/>
   <use width="100%" height="100%" xlink:href="#path1946-9-6"/>
   <use transform="rotate(60 267.21 214.95)" width="100%" height="100%" xlink:href="#path1946-9-6"/>
   <use transform="rotate(120 267.21 214.95)" width="100%" height="100%" xlink:href="#path1946-9-6"/>
   <use transform="rotate(180 267.21 214.95)" width="100%" height="100%" xlink:href="#path1946-9-6"/>
   <use transform="rotate(240 267.21 214.95)" width="100%" height="100%" xlink:href="#path1946-9-6"/>
   <use id="use2147" transform="rotate(-60 267.21 214.95)" width="100%" height="100%" xlink:href="#path1946-9-6"/>
   <use width="100%" height="100%" xlink:href="#use2147"/>
   <use transform="rotate(60 270.41 220.49)" width="100%" height="100%" xlink:href="#use2147"/>
   <use transform="rotate(120 273.61 218.64)" width="100%" height="100%" xlink:href="#use2147"/>
   <use transform="rotate(180 276.81 214.95)" width="100%" height="100%" xlink:href="#use2147"/>
   <use transform="rotate(240 280.01 207.56)" width="100%" height="100%" xlink:href="#use2147"/>
  </g>
 </g>
</svg>
