<svg xmlns="http://www.w3.org/2000/svg" height="40" viewBox="0 0 10.583 10.583" width="40" version="1.1"><rect height="10.583" width="10.583" y=".0010483" x="-.00010065" stroke-width=".26458" fill="#141414"/><g aria-label="f" fill="#4ecac2"><path d="m4.4285 4.01 0.0424-0.1908q0.352-0.1018 0.6319-0.2078 0.1442-0.5514 0.2503-0.844 0.106-0.2927 0.2587-0.509 0.1569-0.2163 0.4326-0.4538 0.5937-0.5047 1.2045-0.5047 0.22902 0 0.39867 0.059376 0.16965 0.055135 0.32233 0.13996-0.1103 0.2715-0.1485 0.3818-0.0382 0.1102-0.1018 0.3817l-0.2248-0.017q-0.0212-0.2375-0.1272-0.4114-0.1018-0.1781-0.4284-0.1781-0.19933 0-0.3605 0.11875-0.16116 0.11875-0.2884 0.34353-0.12299 0.22478-0.22478 0.5047-0.097547 0.27568-0.25871 0.83127 0 0.046653-0.050894 0.19933 0.33929 0.00848 0.92033-0.016965l0.042412 0.059376q-0.1186 0.174-0.1992 0.3394-0.352-0.0255-0.8567-0.034-0.3181 1.1791-0.4793 1.7983-0.2121 0.8101-0.3902 1.3869-0.1739 0.5768-0.3223 0.8948-0.1442 0.3181-0.3181 0.5175-0.1696 0.1993-0.4284 0.3859-0.4453 0.3223-0.827 0.3223-0.19085 0-0.31809-0.050894-0.1272-0.0508-0.2969-0.1654 0.123-0.1696 0.1909-0.2841 0.0636-0.1145 0.14-0.2884h0.084823q0.10603 0.15692 0.21206 0.24175 0.10603 0.089065 0.31809 0.089065 0.33081 0 0.52166-0.32233t0.41563-1.1409q0.084823-0.27992 0.20782-0.78462 0.12299-0.5047 0.55559-2.3157 0.00848-0.021206 0.029688-0.12299 0.025447-0.10179 0.042412-0.16116-0.25447 0.00848-0.57256 0.00848z" stroke-width=".21715px" fill="#4ecac2"/></g></svg>
