<svg width="40" height="40" version="1.1" viewBox="0 0 10.583 10.583" xmlns="http://www.w3.org/2000/svg">
 <g transform="translate(0 -286.42)">
  <g transform="matrix(.26458 0 0 .26458 -90.03 253.92)">
   <rect x="340.27" y="122.82" width="40" height="40" fill="#141414"/>
   <g stroke="#0f82af" stroke-linejoin="round">
    <rect x="354.91" y="135.69" width="10.088" height="22.265" fill="#fff" stroke-width="1.7306"/>
    <rect x="344.83" y="135.68" width="10.088" height="22.265" fill="#fff" stroke-width="1.7306"/>
    <rect x="351.83" y="135.91" width="6.0958" height="11.846" fill="#0f82af" stroke-width="1.7346"/>
    <rect x="365.63" y="135.69" width="10.088" height="22.265" fill="#fff" stroke-width="1.7306"/>
    <rect x="362.62" y="135.91" width="6.0958" height="11.846" fill="#0f82af" stroke-width="1.7346"/>
    <rect x="344.84" y="127.76" width="30.87" height="8" fill="#fff" stroke-width="1.7306"/>
    <g fill="#0f82af">
     <g stroke-width="2">
      <rect x="347.26" y="130.1" width="2" height=".5"/>
      <rect x="352.27" y="130.1" width="2" height=".5"/>
      <rect x="357.24" y="130.1" width="2" height=".5"/>
     </g>
     <g stroke-width=".57948">
      <circle cx="368.12" cy="130.05" r=".71026"/>
      <circle cx="371.09" cy="130.05" r=".71026"/>
      <circle cx="368.12" cy="132.92" r=".71026"/>
      <circle cx="371.09" cy="132.92" r=".71026"/>
     </g>
    </g>
   </g>
  </g>
 </g>
</svg>
