<svg width="40" height="40" version="1.1" viewBox="0 0 10.583 10.583" xmlns="http://www.w3.org/2000/svg">
 <g transform="translate(0 -286.42)">
  <g transform="matrix(.26458 0 0 .26458 -111.12 147.37)">
   <rect x="420" y="525.52" width="40" height="40" fill="#141414"/>
   <g fill="none">
    <ellipse transform="scale(1,-1)" cx="449.75" cy="-544.27" rx="7.0672" ry="8.9321" stroke="#fff" stroke-linejoin="round" stroke-width=".68709"/>
    <path d="m421.75 534.31c1.4533-3.7038 2.9064-7.407 4.2671-7.4069 1.3608 1.5e-4 2.6296 3.7034 3.987 7.4522 1.3574 3.7488 2.8032 7.5424 4.253 7.5495 1.4498 7e-3 2.9028-3.7722 4.3556-7.5511" stroke="#4ecac2" stroke-width=".73673"/>
    <path d="m429.21 548.74c3.292 1.2917 6.5834 2.5832 6.5833 3.7927-1.3e-4 1.2095-3.2916 2.3372-6.6235 3.5437-3.332 1.2065-6.7037 2.4915-6.71 3.7801-6e-3 1.2886 3.3527 2.58 6.7115 3.8713" stroke="#0f82af" stroke-width=".65481"/>
   </g>
  </g>
 </g>
</svg>
