<svg width="40" height="40" version="1.1" viewBox="0 0 10.583 10.583" xmlns="http://www.w3.org/2000/svg">
 <g transform="translate(0 -286.42)">
  <g>
   <rect x="-1.4e-6" y="286.42" width="10.583" height="10.583" fill="#141414"/>
   <g transform="matrix(.26458 0 0 .26458 -18.723 148.49)" fill="#f1f1f1" stroke="#000" stroke-width=".75591" aria-label="SVG">
    <path d="m77.175 547.01q3.1413 0 3.1413-2.1493 0-0.66133-0.28933-1.116-0.26867-0.47533-0.744-0.806-0.47533-0.35133-1.0953-0.59933-0.59933-0.248-1.2813-0.496-0.78533-0.26867-1.488-0.59934-0.70267-0.35133-1.2193-0.806-0.51667-0.47533-0.82667-1.116-0.28933-0.64066-0.28933-1.55 0-1.8807 1.2813-2.9347 1.2813-1.054 3.534-1.054 1.302 0 2.356 0.28933 1.0747 0.26867 1.5707 0.59933l-0.64067 1.6327q-0.434-0.26867-1.302-0.51667-0.84733-0.26866-1.984-0.26866-0.57867 0-1.0747 0.124t-0.868 0.372-0.59933 0.64066q-0.20667 0.372-0.20667 0.88867 0 0.57867 0.22733 0.97133 0.22733 0.39267 0.64067 0.70267 0.41333 0.28933 0.95067 0.53733 0.558 0.248 1.2193 0.496 0.93 0.372 1.6947 0.744 0.78533 0.372 1.3433 0.88867 0.57867 0.51667 0.88867 1.24 0.31 0.70267 0.31 1.7153 0 1.8807-1.3847 2.8933-1.364 1.0127-3.8647 1.0127-0.84733 0-1.5707-0.124-0.70267-0.10333-1.2607-0.248-0.558-0.16533-0.97133-0.33067-0.39267-0.186-0.62-0.31l0.59933-1.6533q0.47533 0.26867 1.4467 0.59934 0.97133 0.33066 2.3767 0.33066z"/>
    <path d="m96.4 534.11q-0.78533 2.2733-1.5087 4.216-0.70267 1.922-1.3847 3.658t-1.364 3.3273q-0.66133 1.5707-1.364 3.1207h-1.8807q-0.70267-1.55-1.3847-3.1207-0.66133-1.5913-1.364-3.3273-0.682-1.736-1.4053-3.658-0.72333-1.9427-1.488-4.216h2.2113q1.116 3.2653 2.1907 6.2827t2.2113 5.6627q1.1367-2.6247 2.2113-5.642 1.0747-3.038 2.17-6.3033z"/>
    <path d="m106.77 541.38h2.0047v6.696q-0.248 0.0827-0.72334 0.186-0.45466 0.10333-1.0747 0.20666-0.59934 0.10334-1.3227 0.16534-0.72333 0.0827-1.4673 0.0827-1.5087 0-2.7487-0.496t-2.1287-1.4467q-0.88867-0.95067-1.3847-2.3353-0.47533-1.3847-0.47533-3.1827t0.53733-3.1827q0.558-1.4053 1.488-2.356 0.93-0.95066 2.17-1.4467 1.2607-0.496 2.6867-0.496 0.97134 0 1.7153 0.124 0.76466 0.124 1.302 0.28933 0.53733 0.16533 0.868 0.33067 0.35133 0.16533 0.47533 0.248l-0.64067 1.674q-0.59933-0.39267-1.5913-0.64067-0.992-0.26867-2.0253-0.26867-1.0953 0-2.0047 0.39267-0.88867 0.39267-1.5293 1.1367-0.62 0.744-0.97134 1.8187-0.35133 1.054-0.35133 2.3767 0 1.2813 0.28933 2.3353 0.31 1.054 0.90934 1.8187 0.62 0.744 1.5087 1.1573 0.90934 0.41334 2.1287 0.41334 0.868 0 1.4673-0.0827 0.62-0.10333 0.88867-0.186z"/>
   </g>
  </g>
 </g>
</svg>
