<?xml version="1.0" encoding="UTF-8" standalone="no"?>
<!-- Created with Inkscape (http://www.inkscape.org/) -->

<svg
   xmlns:dc="http://purl.org/dc/elements/1.1/"
   xmlns:cc="http://creativecommons.org/ns#"
   xmlns:rdf="http://www.w3.org/1999/02/22-rdf-syntax-ns#"
   xmlns:svg="http://www.w3.org/2000/svg"
   xmlns="http://www.w3.org/2000/svg"
   xmlns:sodipodi="http://sodipodi.sourceforge.net/DTD/sodipodi-0.dtd"
   xmlns:inkscape="http://www.inkscape.org/namespaces/inkscape"
   width="40"
   height="40"
   viewBox="0 0 10.583333 10.583334"
   version="1.1"
   id="svg5130"
   inkscape:version="0.92.1 r15371"
   sodipodi:docname="load.svg">
  <defs
     id="defs5124" />
  <sodipodi:namedview
     id="base"
     pagecolor="#ffffff"
     bordercolor="#666666"
     borderopacity="1.0"
     inkscape:pageopacity="0.0"
     inkscape:pageshadow="2"
     inkscape:zoom="11.2"
     inkscape:cx="36.85622"
     inkscape:cy="16.770842"
     inkscape:document-units="mm"
     inkscape:current-layer="layer1"
     showgrid="false"
     inkscape:window-width="1920"
     inkscape:window-height="995"
     inkscape:window-x="0"
     inkscape:window-y="24"
     inkscape:window-maximized="1"
     units="px"
     showguides="false" />
  <metadata
     id="metadata5127">
    <rdf:RDF>
      <cc:Work
         rdf:about="">
        <dc:format>image/svg+xml</dc:format>
        <dc:type
           rdf:resource="http://purl.org/dc/dcmitype/StillImage" />
        <dc:title></dc:title>
      </cc:Work>
    </rdf:RDF>
  </metadata>
  <g
     inkscape:label="Layer 1"
     inkscape:groupmode="layer"
     id="layer1"
     transform="translate(0,-286.41665)">
    <g
       id="g11648"
       transform="matrix(0.04386652,0,0,0.04287478,0.95868072,287.44131)"
       style="fill:#808080">
      <path
         id="path11593"
         d="m 185.379,159.263 v 0 l -3.452,16.918 c -1.222,5.987 -6.488,10.287 -12.599,10.287 H 20.196 c -8.135,0 -14.225,-7.458 -12.599,-15.429 l 14.342,-70.291 c 1.001,-4.904 4.577,-8.725 9.141,-10.196 v 0 c 0.325,-0.105 0.656,-0.198 0.99,-0.279 0.017,-0.004 0.034,-0.007 0.051,-0.011 0.314,-0.075 0.631,-0.14 0.952,-0.193 0.101,-0.016 0.203,-0.026 0.305,-0.04 0.247,-0.035 0.495,-0.07 0.746,-0.091 0.368,-0.03 0.739,-0.049 1.114,-0.049 h 5.842 117.735 10 16.563 6.236 c 1.79,0 3.383,0.718 4.54,1.861 1.157,1.143 1.879,2.712 1.926,4.414 0.013,0.486 -0.028,0.983 -0.13,1.484 z m -0.064,-79.374 c -0.6,-5.713 -5.445,-10.181 -11.314,-10.181 h -5.186 V 79.889 Z M 12.142,98.749 C 14.089,89.206 21.745,81.95 31.081,80.263 V 52.719 H 13.35 C 5.989,52.719 0,58.708 0,66.068 v 92.185 z M 158.815,17.23 V 79.889 H 41.081 V 17.23 c 0,-3.095 2.519,-5.614 5.614,-5.614 h 106.507 c 3.095,0 5.613,2.518 5.613,5.614 z m -14.39,44.277 c 0,-2.761 -2.238,-5 -5,-5 H 60.471 c -2.761,0 -5,2.239 -5,5 0,2.761 2.239,5 5,5 h 78.954 c 2.762,0 5,-2.239 5,-5 z m 0,-25.817 c 0,-2.761 -2.238,-5 -5,-5 H 60.471 c -2.761,0 -5,2.239 -5,5 0,2.761 2.239,5 5,5 h 78.954 c 2.762,0 5,-2.239 5,-5 z"
         inkscape:connector-curvature="0"
         style="fill:#808080" />
      <g
         id="g11595"
         style="fill:#808080" />
      <g
         id="g11597"
         style="fill:#808080" />
      <g
         id="g11599"
         style="fill:#808080" />
      <g
         id="g11601"
         style="fill:#808080" />
      <g
         id="g11603"
         style="fill:#808080" />
      <g
         id="g11605"
         style="fill:#808080" />
      <g
         id="g11607"
         style="fill:#808080" />
      <g
         id="g11609"
         style="fill:#808080" />
      <g
         id="g11611"
         style="fill:#808080" />
      <g
         id="g11613"
         style="fill:#808080" />
      <g
         id="g11615"
         style="fill:#808080" />
      <g
         id="g11617"
         style="fill:#808080" />
      <g
         id="g11619"
         style="fill:#808080" />
      <g
         id="g11621"
         style="fill:#808080" />
      <g
         id="g11623"
         style="fill:#808080" />
    </g>
  </g>
</svg>
